<svg width="1280" height="760" viewBox="0 0 1280 760" fill="none" xmlns="http://www.w3.org/2000/svg">
  <defs>
    <linearGradient id="sky" x1="0" y1="0" x2="0" y2="1">
      <stop offset="0" stop-color="#dff8ff"/>
      <stop offset="0.52" stop-color="#f1fff8"/>
      <stop offset="1" stop-color="#fff7e8"/>
    </linearGradient>
    <linearGradient id="body" x1="282" y1="315" x2="922" y2="605" gradientUnits="userSpaceOnUse">
      <stop offset="0" stop-color="#0096ff"/>
      <stop offset="0.5" stop-color="#00c7be"/>
      <stop offset="1" stop-color="#2ed56d"/>
    </linearGradient>
    <linearGradient id="cab" x1="780" y1="315" x2="1040" y2="580">
      <stop offset="0" stop-color="#0b86ff"/>
      <stop offset="0.62" stop-color="#00a99d"/>
      <stop offset="1" stop-color="#2ed56d"/>
    </linearGradient>
    <linearGradient id="glass" x1="365" y1="287" x2="865" y2="585">
      <stop offset="0" stop-color="#e8ffff" stop-opacity="0.92"/>
      <stop offset="0.42" stop-color="#7fe7ff" stop-opacity="0.45"/>
      <stop offset="1" stop-color="#1f6fd6" stop-opacity="0.28"/>
    </linearGradient>
    <linearGradient id="window" x1="862" y1="319" x2="1010" y2="410">
      <stop offset="0" stop-color="#ecffff"/>
      <stop offset="1" stop-color="#7ee5ff"/>
    </linearGradient>
    <filter id="shadow" x="-20%" y="-20%" width="140%" height="140%">
      <feDropShadow dx="0" dy="22" stdDeviation="18" flood-color="#06202e" flood-opacity="0.22"/>
    </filter>
    <filter id="soft" x="-30%" y="-30%" width="160%" height="160%">
      <feGaussianBlur stdDeviation="18"/>
    </filter>
    <pattern id="solar" width="58" height="44" patternUnits="userSpaceOnUse">
      <rect width="58" height="44" fill="#0b74de"/>
      <path d="M0 0h58M0 22h58M29 0v44" stroke="#d8ffff" stroke-opacity=".35" stroke-width="2"/>
    </pattern>
  </defs>

  <rect width="1280" height="760" rx="46" fill="url(#sky)"/>
  <circle cx="1010" cy="150" r="100" fill="#fff8bf" opacity=".65"/>
  <path d="M0 558C150 496 282 500 412 527C582 562 735 607 905 548C1068 491 1175 483 1280 520V760H0V558Z" fill="#d7f8e5"/>
  <path d="M0 612C185 555 294 585 447 609C616 635 738 642 880 596C1036 545 1162 535 1280 571V760H0V612Z" fill="#bdeed2"/>

  <!-- DC monuments and skyline -->
  <g opacity=".9">
    <rect x="90" y="342" width="68" height="160" rx="10" fill="#b8d9d6"/>
    <rect x="180" y="312" width="44" height="190" rx="8" fill="#9dcad0"/>
    <rect x="248" y="365" width="58" height="137" rx="10" fill="#b8d9d6"/>
    <rect x="1002" y="330" width="66" height="172" rx="9" fill="#a7d7d0"/>
    <rect x="1101" y="357" width="48" height="145" rx="8" fill="#b7dad5"/>
    <path d="M628 184L648 502H608L628 184Z" fill="#d9f3f2"/>
    <rect x="619" y="245" width="18" height="256" fill="#c4e4e4"/>
    <path d="M730 415c0-48 38-86 86-86s86 38 86 86v88H730v-88Z" fill="#cfe8e3"/>
    <path d="M704 503h224v30H704z" fill="#b7d8d2"/>
    <path d="M704 418h224" stroke="#eaffff" stroke-width="8"/>
    <rect x="770" y="390" width="92" height="113" fill="#eaf8f5" opacity=".65"/>
    <path d="M410 360h120v143H410z" fill="#b4d6d4"/>
    <path d="M470 285l25 75h-50l25-75Z" fill="#b4d6d4"/>
  </g>

  <g filter="url(#soft)" opacity=".38">
    <ellipse cx="676" cy="646" rx="404" ry="54" fill="#052233"/>
  </g>

  <!-- electric truck -->
  <g filter="url(#shadow)">
    <!-- cargo box -->
    <path d="M238 303c0-35 28-63 63-63h510c28 0 50 22 50 50v222c0 31-25 56-56 56H301c-35 0-63-28-63-63V303Z" fill="url(#body)"/>
    <path d="M278 282h523c22 0 40 18 40 40v160c0 22-18 40-40 40H278V282Z" fill="url(#glass)" stroke="#d9ffff" stroke-opacity=".6" stroke-width="4"/>
    <path d="M305 305h500v48H305z" fill="url(#solar)" opacity=".9"/>
    <path d="M305 353h500v170H305z" fill="#edffff" opacity=".18"/>
    <path d="M305 353h500M405 353v170M505 353v170M605 353v170M705 353v170M805 353v170" stroke="#e7ffff" stroke-opacity=".36" stroke-width="3"/>
    <path d="M310 285c76 92 270 190 512 196" stroke="#ffffff" stroke-opacity=".22" stroke-width="18" stroke-linecap="round"/>

    <!-- visible food boxes inside transparent cargo -->
    <g opacity=".98">
      <rect x="332" y="385" width="80" height="62" rx="14" fill="#ffbd4a"/>
      <rect x="426" y="381" width="82" height="66" rx="14" fill="#72d66c"/>
      <rect x="525" y="388" width="78" height="60" rx="14" fill="#ff6b59"/>
      <rect x="622" y="382" width="78" height="66" rx="14" fill="#ffd60a"/>
      <rect x="717" y="390" width="68" height="58" rx="14" fill="#8ce99a"/>
      <path d="M355 392c18-27 47-9 39 17c-8 29-50 26-48 0c1-9 4-14 9-17Z" fill="#e2342c"/>
      <path d="M455 396c24-28 49-1 33 29c-16 28-57 19-48-12c3-8 7-14 15-17Z" fill="#2fb344"/>
      <circle cx="545" cy="416" r="17" fill="#ff9f0a"/>
      <circle cx="570" cy="416" r="17" fill="#ff9f0a"/>
      <path d="M644 394c14 9 33 9 46 0c7 42-53 43-46 0Z" fill="#2f9e44"/>
      <rect x="734" y="402" width="34" height="24" rx="12" fill="#ffffff" opacity=".75"/>
      <rect x="354" y="461" width="392" height="28" rx="14" fill="#082233" opacity=".2"/>
    </g>

    <!-- cab -->
    <path d="M820 333h116c37 0 70 20 87 53l55 108c10 20-4 44-27 44H820V333Z" fill="url(#cab)"/>
    <path d="M864 360h67c18 0 35 10 43 26l29 57H864V360Z" fill="url(#window)" stroke="#eaffff" stroke-width="5"/>
    <path d="M1018 485h46" stroke="#eaffff" stroke-width="8" stroke-linecap="round"/>
    <rect x="837" y="466" width="62" height="30" rx="15" fill="#061922" opacity=".34"/>
    <path d="M841 331h-42v207h42V331Z" fill="#0a4c63" opacity=".55"/>
    <path d="M899 336c13 46 50 95 116 137" stroke="#ffffff" opacity=".22" stroke-width="14" stroke-linecap="round"/>

    <!-- branding -->
    <rect x="342" y="250" width="265" height="66" rx="22" fill="white" opacity=".93"/>
    <text x="372" y="291" font-family="-apple-system, BlinkMacSystemFont, Segoe UI, Arial" font-size="29" font-weight="900" fill="#005a5d">Meals on Wheels</text>
    <text x="373" y="312" font-family="-apple-system, BlinkMacSystemFont, Segoe UI, Arial" font-size="15" font-weight="800" fill="#3e8e3c">DC campus grocery</text>
    <circle cx="639" cy="283" r="45" fill="white" opacity=".96"/>
    <path d="M647 244l-42 51h31l-9 35l42-52h-30l8-34Z" fill="#00a99d"/>
    <path d="M606 241c-34-39-68-54-104-42c30 10 42 30 47 57c18-16 37-20 57-15Z" fill="#42b84a"/>
    <path d="M647 236c18-50 49-79 95-88c-8 39-34 63-95 88Z" fill="#2f9e44"/>

    <!-- wheels -->
    <g>
      <circle cx="395" cy="551" r="72" fill="#071f2e"/>
      <circle cx="395" cy="551" r="42" fill="#f0fbff"/>
      <circle cx="395" cy="551" r="19" fill="#00a99d"/>
      <circle cx="850" cy="551" r="72" fill="#071f2e"/>
      <circle cx="850" cy="551" r="42" fill="#f0fbff"/>
      <circle cx="850" cy="551" r="19" fill="#00a99d"/>
      <circle cx="992" cy="551" r="61" fill="#071f2e"/>
      <circle cx="992" cy="551" r="34" fill="#f0fbff"/>
      <circle cx="992" cy="551" r="15" fill="#00a99d"/>
    </g>
  </g>

  <path d="M0 658C220 622 444 616 640 644C845 673 1056 687 1280 649V760H0V658Z" fill="#091f2e"/>
  <path d="M40 690h160M272 690h190M544 690h130M760 690h210M1050 690h164" stroke="#d8ffff" stroke-opacity=".55" stroke-width="9" stroke-linecap="round"/>
  <g opacity=".9">
    <circle cx="114" cy="229" r="8" fill="#00c7be"/>
    <circle cx="1116" cy="238" r="6" fill="#30d158"/>
    <circle cx="228" cy="189" r="5" fill="#0a84ff"/>
    <circle cx="1024" cy="156" r="4" fill="#0a84ff"/>
  </g>
</svg>